<?xml version="1.0" encoding="UTF-8" standalone="no"?>
<!-- Generator: Adobe Illustrator 19.0.0, SVG Export Plug-In . SVG Version: 6.00 Build 0)  -->

<svg
   version="1.1"
   id="Capa_1"
   x="0px"
   y="0px"
   viewBox="0 0 360 360"
   style="enable-background:new 0 0 360 360;"
   xml:space="preserve"
   sodipodi:docname="apk.svg"
   inkscape:version="1.2.1 (9c6d41e410, 2022-07-14)"
   xmlns:inkscape="http://www.inkscape.org/namespaces/inkscape"
   xmlns:sodipodi="http://sodipodi.sourceforge.net/DTD/sodipodi-0.dtd"
   xmlns="http://www.w3.org/2000/svg"
   xmlns:svg="http://www.w3.org/2000/svg"><defs
   id="defs40" /><sodipodi:namedview
   id="namedview38"
   pagecolor="#505050"
   bordercolor="#ffffff"
   borderopacity="1"
   inkscape:showpageshadow="0"
   inkscape:pageopacity="0"
   inkscape:pagecheckerboard="1"
   inkscape:deskcolor="#505050"
   showgrid="false"
   inkscape:zoom="1.5305556"
   inkscape:cx="122.17786"
   inkscape:cy="180.32668"
   inkscape:window-width="1366"
   inkscape:window-height="705"
   inkscape:window-x="-8"
   inkscape:window-y="-8"
   inkscape:window-maximized="1"
   inkscape:current-layer="Capa_1" />
<g
   id="XMLID_1_"
   style="fill:#ffffff;fill-opacity:1">
	<path
   id="XMLID_1058_"
   d="M345.205,122.272h-50.41V77.834L211.773,0H14.795v360h280v-55h50.41V122.272z M315.205,275h-210V152.273   h210V275z"
   style="fill:#ffffff;fill-opacity:1" />
	<path
   id="XMLID_1061_"
   d="M140.456,225.876h22.32l5.94,15.93h12.78l-24.3-63.9h-10.98l-24.39,63.9h12.78L140.456,225.876z    M151.706,192.036l8.82,25.11h-18L151.706,192.036z"
   style="fill:#ffffff;fill-opacity:1" />
	<path
   id="XMLID_1064_"
   d="M200.936,220.386h15.121c2.939,0,5.639-0.599,8.1-1.8c2.459-1.199,4.559-2.79,6.3-4.77   c1.739-1.98,3.089-4.244,4.05-6.795c0.959-2.549,1.439-5.175,1.439-7.875c0-2.579-0.51-5.144-1.529-7.695   c-1.021-2.549-2.43-4.829-4.23-6.84c-1.8-2.01-3.945-3.63-6.434-4.86c-2.491-1.229-5.206-1.845-8.146-1.845h-27.09v63.9h12.42   V220.386z M200.936,188.796h13.86c1.08,0,2.145,0.225,3.194,0.675c1.05,0.45,1.965,1.125,2.746,2.025   c0.779,0.9,1.408,1.996,1.89,3.285c0.479,1.291,0.72,2.745,0.72,4.365c0,3.181-0.765,5.701-2.295,7.56   c-1.529,1.86-3.436,2.79-5.715,2.79h-14.4V188.796z"
   style="fill:#ffffff;fill-opacity:1" />
	<polygon
   id="XMLID_1067_"
   points="257.005,222.726 265.195,214.176 285.085,241.806 299.035,241.806 273.025,206.256    297.505,177.906 283.824,177.906 257.005,208.326 257.005,177.996 244.585,177.996 244.585,241.806 257.005,241.806  "
   style="fill:#ffffff;fill-opacity:1" />
</g>
<g
   id="g7">
</g>
<g
   id="g9">
</g>
<g
   id="g11">
</g>
<g
   id="g13">
</g>
<g
   id="g15">
</g>
<g
   id="g17">
</g>
<g
   id="g19">
</g>
<g
   id="g21">
</g>
<g
   id="g23">
</g>
<g
   id="g25">
</g>
<g
   id="g27">
</g>
<g
   id="g29">
</g>
<g
   id="g31">
</g>
<g
   id="g33">
</g>
<g
   id="g35">
</g>
</svg>
