<?xml version="1.0" encoding="UTF-8" standalone="no"?>
<!-- Generator: Adobe Illustrator 19.0.0, SVG Export Plug-In . SVG Version: 6.00 Build 0)  -->

<svg
   version="1.1"
   id="Layer_1"
   x="0px"
   y="0px"
   viewBox="0 0 512 512"
   style="enable-background:new 0 0 512 512;"
   xml:space="preserve"
   sodipodi:docname="back.svg"
   inkscape:version="1.2.1 (9c6d41e410, 2022-07-14)"
   xmlns:inkscape="http://www.inkscape.org/namespaces/inkscape"
   xmlns:sodipodi="http://sodipodi.sourceforge.net/DTD/sodipodi-0.dtd"
   xmlns="http://www.w3.org/2000/svg"
   xmlns:svg="http://www.w3.org/2000/svg"><defs
   id="defs6746" /><sodipodi:namedview
   id="namedview6744"
   pagecolor="#505050"
   bordercolor="#ffffff"
   borderopacity="1"
   inkscape:showpageshadow="0"
   inkscape:pageopacity="0"
   inkscape:pagecheckerboard="1"
   inkscape:deskcolor="#505050"
   showgrid="false"
   inkscape:zoom="1.0761719"
   inkscape:cx="173.76407"
   inkscape:cy="256.46461"
   inkscape:window-width="1366"
   inkscape:window-height="705"
   inkscape:window-x="-8"
   inkscape:window-y="-8"
   inkscape:window-maximized="1"
   inkscape:current-layer="Layer_1" />
<g
   id="g6711"
   style="fill:#ffffff;fill-opacity:1">
	<g
   id="g6709"
   style="fill:#ffffff;fill-opacity:1">
		<g
   id="g6707"
   style="fill:#ffffff;fill-opacity:1">
			<path
   d="M486.4,0H25.6C11.486,0,0,11.486,0,25.6v76.8h512V25.6C512,11.486,500.514,0,486.4,0z M59.733,93.867     c-18.825,0-34.133-15.309-34.133-34.133S40.909,25.6,59.733,25.6s34.133,15.309,34.133,34.133S78.558,93.867,59.733,93.867z      M145.067,93.867c-18.825,0-34.133-15.309-34.133-34.133S126.242,25.6,145.067,25.6S179.2,40.909,179.2,59.733     S163.891,93.867,145.067,93.867z M221.867,93.867c-18.825,0-34.133-15.309-34.133-34.133S203.042,25.6,221.867,25.6     S256,40.909,256,59.733S240.691,93.867,221.867,93.867z"
   id="path6695"
   style="fill:#ffffff;fill-opacity:1" />
			<path
   d="M59.733,42.667c-9.412,0-17.067,7.654-17.067,17.067S50.321,76.8,59.733,76.8S76.8,69.146,76.8,59.733     S69.146,42.667,59.733,42.667z"
   id="path6697"
   style="fill:#ffffff;fill-opacity:1" />
			<path
   d="M221.867,42.667c-9.412,0-17.067,7.654-17.067,17.067S212.454,76.8,221.867,76.8c9.412,0,17.067-7.654,17.067-17.067     S231.279,42.667,221.867,42.667z"
   id="path6699"
   style="fill:#ffffff;fill-opacity:1" />
			<path
   d="M0,486.4C0,500.514,11.486,512,25.6,512h460.8c14.114,0,25.6-11.486,25.6-25.6V119.467H0V486.4z M179.2,469.333H85.333     c-4.719,0-8.533-3.823-8.533-8.533s3.814-8.533,8.533-8.533H179.2c4.719,0,8.533,3.823,8.533,8.533     S183.919,469.333,179.2,469.333z M76.8,358.4c0-4.71,3.814-8.533,8.533-8.533H179.2c4.719,0,8.533,3.823,8.533,8.533     s-3.814,8.533-8.533,8.533H85.333C80.614,366.933,76.8,363.11,76.8,358.4z M249.967,301.167l23.1-23.1V230.4     c0-14.114,11.486-25.6,25.6-25.6h153.6c14.114,0,25.6,11.486,25.6,25.6V384c0,14.114-11.486,25.6-25.6,25.6h-153.6     c-14.114,0-25.6-11.486-25.6-25.6v-47.667l-23.1-23.1C246.63,309.897,246.63,304.503,249.967,301.167z M238.933,409.6     c0,4.71-3.814,8.533-8.533,8.533H110.933c-4.719,0-8.533-3.823-8.533-8.533s3.814-8.533,8.533-8.533H230.4     C235.119,401.067,238.933,404.89,238.933,409.6z M213.333,204.8c0,4.71-3.814,8.533-8.533,8.533H85.333     c-4.719,0-8.533-3.823-8.533-8.533c0-4.71,3.814-8.533,8.533-8.533H204.8C209.519,196.267,213.333,200.09,213.333,204.8z      M59.733,145.067H128c4.719,0,8.533,3.823,8.533,8.533c0,4.71-3.814,8.533-8.533,8.533H59.733c-4.719,0-8.533-3.823-8.533-8.533     C51.2,148.89,55.014,145.067,59.733,145.067z M59.733,247.467H128c4.719,0,8.533,3.823,8.533,8.533s-3.814,8.533-8.533,8.533     H59.733c-4.719,0-8.533-3.823-8.533-8.533S55.014,247.467,59.733,247.467z M59.733,298.667H204.8     c4.719,0,8.533,3.823,8.533,8.533s-3.814,8.533-8.533,8.533H59.733c-4.719,0-8.533-3.823-8.533-8.533     S55.014,298.667,59.733,298.667z"
   id="path6701"
   style="fill:#ffffff;fill-opacity:1" />
			<path
   d="M145.067,42.667c-9.412,0-17.067,7.654-17.067,17.067S135.654,76.8,145.067,76.8c9.412,0,17.067-7.654,17.067-17.067     S154.479,42.667,145.067,42.667z"
   id="path6703"
   style="fill:#ffffff;fill-opacity:1" />
			<path
   d="M290.13,332.803v51.2c0,4.702,3.831,8.533,8.533,8.533h153.6c4.71,0,8.533-3.831,8.533-8.533v-153.6     c0-4.71-3.823-8.533-8.533-8.533h-153.6c-4.702,0-8.533,3.823-8.533,8.533v51.2c0,2.261-0.896,4.429-2.5,6.033l-19.567,19.567     l19.567,19.567C289.234,328.365,290.13,330.541,290.13,332.803z M318.23,262.138c-3.328-3.328-3.328-8.73,0-12.066     c3.337-3.328,8.738-3.328,12.066,0l45.065,45.065l45.056-45.065c3.337-3.328,8.73-3.328,12.066,0     c3.337,3.337,3.337,8.738,0,12.066l-45.056,45.065l45.056,45.056c3.337,3.336,3.337,8.73,0,12.066     c-1.664,1.664-3.849,2.5-6.033,2.5s-4.369-0.836-6.033-2.5l-45.056-45.056l-45.065,45.056c-1.664,1.664-3.849,2.5-6.033,2.5     c-2.185,0-4.36-0.836-6.033-2.5c-3.328-3.337-3.328-8.73,0-12.066l45.065-45.056L318.23,262.138z"
   id="path6705"
   style="fill:#ffffff;fill-opacity:1" />
		</g>
	</g>
</g>
<g
   id="g6713">
</g>
<g
   id="g6715">
</g>
<g
   id="g6717">
</g>
<g
   id="g6719">
</g>
<g
   id="g6721">
</g>
<g
   id="g6723">
</g>
<g
   id="g6725">
</g>
<g
   id="g6727">
</g>
<g
   id="g6729">
</g>
<g
   id="g6731">
</g>
<g
   id="g6733">
</g>
<g
   id="g6735">
</g>
<g
   id="g6737">
</g>
<g
   id="g6739">
</g>
<g
   id="g6741">
</g>
</svg>
