<?xml version="1.0" encoding="iso-8859-1"?>
<!-- Generator: Adobe Illustrator 18.0.0, SVG Export Plug-In . SVG Version: 6.00 Build 0)  -->
<!DOCTYPE svg PUBLIC "-//W3C//DTD SVG 1.1//EN" "http://www.w3.org/Graphics/SVG/1.1/DTD/svg11.dtd">
<svg version="1.1" id="Capa_1" xmlns="http://www.w3.org/2000/svg" xmlns:xlink="http://www.w3.org/1999/xlink" x="0px" y="0px"
	 viewBox="0 0 297 297" style="enable-background:new 0 0 297 297;" xml:space="preserve">
<path d="M286.966,17.308H10.034C4.493,17.308,0,21.801,0,27.342v103.85c0,5.541,4.493,10.034,10.034,10.034h24.583v118.399h-7.274
	c-5.541,0-10.034,4.493-10.034,10.034c0,5.541,4.493,10.034,10.034,10.034h34.617c5.541,0,10.034-4.493,10.034-10.034
	c0-5.541-4.493-10.034-10.034-10.034h-7.274V141.226h187.632v118.399h-7.274c-5.541,0-10.034,4.493-10.034,10.034
	c0,5.541,4.493,10.034,10.034,10.034h34.617c5.541,0,10.034-4.493,10.034-10.034c0-5.541-4.493-10.034-10.034-10.034h-7.274V141.226
	h24.583c5.541,0,10.034-4.493,10.034-10.034V27.342C297,21.801,292.507,17.308,286.966,17.308z M120.799,121.158l83.782-83.782
	h58.161l-83.782,83.782H120.799z M34.258,121.158l83.782-83.782h58.161l-83.782,83.782H34.258z M89.659,37.376l-69.592,69.592
	V37.376H89.659z M207.341,121.158l69.592-69.592v69.592H207.341z"/>
<g>
</g>
<g>
</g>
<g>
</g>
<g>
</g>
<g>
</g>
<g>
</g>
<g>
</g>
<g>
</g>
<g>
</g>
<g>
</g>
<g>
</g>
<g>
</g>
<g>
</g>
<g>
</g>
<g>
</g>
</svg>
