<?xml version="1.0" encoding="UTF-8" standalone="no"?>
<svg
   width="439.82083"
   height="459.99393"
   viewBox="0 0 439.82083 459.99393"
   version="1.1"
   xml:space="preserve"
   id="svg1999"
   sodipodi:docname="app.svg"
   inkscape:version="1.2.1 (9c6d41e410, 2022-07-14)"
   xmlns:inkscape="http://www.inkscape.org/namespaces/inkscape"
   xmlns:sodipodi="http://sodipodi.sourceforge.net/DTD/sodipodi-0.dtd"
   xmlns="http://www.w3.org/2000/svg"
   xmlns:svg="http://www.w3.org/2000/svg"><defs
     id="defs2003" /><sodipodi:namedview
     id="namedview2001"
     pagecolor="#505050"
     bordercolor="#ffffff"
     borderopacity="1"
     inkscape:showpageshadow="0"
     inkscape:pageopacity="0"
     inkscape:pagecheckerboard="1"
     inkscape:deskcolor="#505050"
     showgrid="false"
     inkscape:zoom="1.0761719"
     inkscape:cx="137.5245"
     inkscape:cy="230.44646"
     inkscape:window-width="1366"
     inkscape:window-height="705"
     inkscape:window-x="-8"
     inkscape:window-y="-8"
     inkscape:window-maximized="1"
     inkscape:current-layer="svg1999" /><g
     id="_x31_88_x2C__settings_x2C__App_x2C__installation_x2C__maintenance_x2C__service"
     style="fill:#ffffff;fill-opacity:1"
     transform="translate(-36.090181,-26.003068)"><g
       id="g1995"
       style="fill:#ffffff;fill-opacity:1"><path
         d="m 316.966,274.301 -32.579,32.578 121.769,121.767 32.576,-32.577 z m -40.322,29.996 37.741,-37.74 c 1.423,-1.424 3.737,-1.424 5.162,0 L 443.895,390.906 475.911,358.891 317.826,200.808 c -0.83,-0.86 -1.246,-2.077 -1.01,-3.323 4.926,-23.143 4.006,-47.265 -2.729,-69.992 C 307.589,105.567 295.691,84.887 278.363,67.589 243.856,33.053 194.16,18.752 146.54,29.523 l 104.111,104.083 c 1.425,1.425 1.425,3.738 0,5.163 L 148.855,240.565 c -1.395,1.425 -3.739,1.425 -5.134,0 L 39.61,136.453 c -10.771,47.621 3.531,97.288 38.066,131.824 17.328,17.298 37.978,29.226 59.904,35.693 22.697,6.735 46.73,7.654 69.814,2.789 1.216,-0.297 2.551,0 3.5,0.949 L 369.005,465.82 400.991,433.806 276.644,309.46 c -1.424,-1.425 -1.424,-3.739 0,-5.163 z M 131.676,104.676 c -4.303,0 -8.635,1.662 -11.958,4.955 -3.292,3.293 -4.924,7.625 -4.924,11.957 0,4.332 1.632,8.664 4.924,11.986 3.324,3.294 7.656,4.926 11.958,4.926 4.271,0 8.514,-1.572 11.808,-4.747 l 0.179,-0.179 c 3.292,-3.322 4.954,-7.654 4.954,-11.986 0,-4.303 -1.662,-8.664 -4.954,-11.957 -3.323,-3.293 -7.656,-4.955 -11.987,-4.955 z m -17.091,-0.178 c 4.719,-4.747 10.92,-7.092 17.091,-7.092 6.2,0 12.401,2.345 17.12,7.063 4.747,4.746 7.091,10.947 7.091,17.119 0,6.201 -2.344,12.402 -7.061,17.119 l -0.269,0.238 c -4.687,4.568 -10.769,6.854 -16.881,6.854 -6.171,0 -12.373,-2.373 -17.091,-7.092 -4.717,-4.717 -7.091,-10.918 -7.091,-17.119 0,-6.172 2.374,-12.373 7.091,-17.09 z m -12.727,-12.728 -22.55,40.618 41.628,41.598 40.587,-22.55 22.55,-40.617 -41.598,-41.629 z m 91.71,306.967 c -3.324,-3.322 -7.923,-5.37 -12.996,-5.37 -4.985,0 -9.524,1.988 -12.818,5.192 l -0.177,0.178 c -3.323,3.323 -5.401,7.922 -5.401,12.996 0,5.104 2.078,9.702 5.371,12.995 3.324,3.353 7.921,5.4 13.025,5.4 5.073,0 9.672,-2.077 12.996,-5.4 3.322,-3.293 5.369,-7.892 5.369,-12.995 10e-4,-5.074 -2.047,-9.672 -5.369,-12.996 z m -12.996,-12.669 c 7.091,0 13.5,2.879 18.158,7.507 4.627,4.657 7.507,11.067 7.507,18.158 0,7.091 -2.879,13.5 -7.537,18.158 -4.629,4.657 -11.037,7.536 -18.128,7.536 -7.063,0 -13.501,-2.879 -18.128,-7.536 -4.689,-4.658 -7.566,-11.097 -7.566,-18.158 0,-7.091 2.877,-13.501 7.537,-18.158 l 0.237,-0.208 c 4.628,-4.51 10.977,-7.299 17.92,-7.299 z m 5.637,-37.591 h -11.274 v 11.304 c 1.128,-0.118 2.255,-0.208 3.413,-0.267 h 0.087 0.209 0.088 0.089 0.06 l 0.089,-0.029 h 0.088 0.06 0.09 v 0 h 0.06 0.087 0.09 0.06 0.089 0.06 0.088 0.06 0.09 v 0 h 0.089 0.058 0.09 0.06 0.089 0.058 0.089 0.06 0.089 0.06 0.087 0.06 0.089 0.089 0.058 0.089 0.06 0.089 v 0 h 0.058 0.089 0.09 0.06 0.088 0.06 0.089 0.06 0.06 0.028 0.089 0.06 0.09 l 0.087,0.029 h 0.06 0.09 0.06 0.237 0.089 c 1.157,0.059 2.285,0.148 3.412,0.267 v -11.304 z m 43.081,22.489 -7.951,-7.951 -8.01,8.011 0.326,0.268 0.147,0.118 0.06,0.06 0.06,0.029 0.06,0.06 v 0 l 0.058,0.06 0.089,0.059 0.06,0.061 0.06,0.029 0.06,0.059 0.03,0.029 0.028,0.03 0.119,0.119 0.06,0.029 0.06,0.06 0.06,0.029 v 0.03 l 0.088,0.06 0.239,0.207 v 0 l 0.058,0.06 c 0.892,0.771 1.722,1.513 2.494,2.313 0.83,0.832 1.662,1.752 2.521,2.73 l 0.03,0.029 0.03,0.029 0.03,0.061 0.058,0.059 0.06,0.06 0.06,0.06 0.06,0.059 0.03,0.06 0.06,0.06 v 0.029 l 0.058,0.029 0.06,0.09 0.03,0.059 0.06,0.06 0.06,0.06 0.06,0.06 0.028,0.06 0.06,0.059 v 0 l 0.386,0.476 z m 14.567,46.404 v -11.244 h -11.304 c 0.089,1.038 0.179,2.106 0.238,3.174 v 0.06 0.327 0.089 l 0.03,0.06 v 0.088 0 0.06 0.089 0.09 0.059 0.09 0.059 0.089 0.089 0.06 0.089 0.06 0.09 h 0.028 v 0.059 0.09 0.088 0.06 0.089 0.06 0 0.445 0.475 0.06 0.089 0.06 0 0.088 0.061 l -0.028,0.147 v 0.089 0.149 0.089 0.06 0 0.089 0.089 0.059 0.09 0.059 0.09 0.059 l -0.03,0.09 v 0.029 0.059 0.06 0.089 0.148 0.09 l -0.03,0.088 v 0.06 c -0.03,1.039 -0.119,2.019 -0.208,3.026 h 11.304 z m -22.518,43.082 7.951,-7.952 -7.98,-7.981 c -0.712,0.831 -1.425,1.662 -2.136,2.463 l -0.06,0.06 -0.06,0.06 -0.03,0.029 -0.089,0.089 -0.03,0.06 -0.058,0.059 -0.119,0.119 v 0 l -0.03,0.06 -0.06,0.06 -0.06,0.06 -0.058,0.028 -0.06,0.06 -0.03,0.061 v 0 l -0.06,0.059 -0.06,0.06 -0.06,0.06 -0.028,0.059 -0.06,0.03 -0.03,0.029 -0.03,0.03 -0.06,0.059 -0.03,0.06 -0.06,0.06 -0.058,0.059 -0.06,0.03 v 0.029 l -0.03,0.03 -0.06,0.059 -0.06,0.06 -0.06,0.06 -0.058,0.029 -0.03,0.06 v 0 l -0.06,0.06 -0.386,0.356 -0.03,0.029 v 0.029 l -0.177,0.148 -0.06,0.06 -0.06,0.059 -0.03,0.06 -0.06,0.03 -0.06,0.06 v 0 l -0.058,0.059 -0.06,0.06 -0.06,0.059 -0.06,0.03 -0.06,0.06 -0.03,0.06 -0.118,0.089 v 0 l -0.06,0.06 -0.06,0.059 c -0.89,0.802 -1.779,1.603 -2.729,2.345 z m -46.404,14.568 h 11.274 v -11.305 c -1.187,0.119 -2.373,0.208 -3.59,0.268 h -0.058 -0.089 -0.089 v 0 h -0.06 -0.087 -0.06 -0.09 l -0.089,0.03 h -0.06 -0.088 -0.06 -0.089 -0.09 -0.058 -0.06 -0.03 -0.06 -0.089 -0.058 -0.089 -0.06 -0.089 v 0 h -0.444 -0.445 -0.09 -0.058 -0.089 v 0 h -0.06 -0.089 -0.147 -0.089 -0.149 -0.087 -0.06 v 0 h -0.09 l -0.06,-0.03 h -0.088 -0.06 -0.089 -0.089 -0.058 -0.089 -0.03 -0.03 -0.09 l -0.087,-0.029 h -0.149 -0.089 -0.06 -0.088 -0.089 v 0 l -0.06,-0.03 h -0.09 c -0.949,-0.029 -1.869,-0.118 -2.788,-0.208 v 11.304 z m -43.081,-22.52 7.951,7.952 8.012,-7.981 -0.979,-0.831 h -0.03 l -0.533,-0.475 -0.06,-0.03 -0.179,-0.178 -0.06,-0.029 -0.058,-0.06 -0.06,-0.06 -0.03,-0.029 -0.03,-0.03 -0.06,-0.059 -0.06,-0.03 -0.058,-0.06 -0.06,-0.059 -0.06,-0.029 v -0.03 l -0.06,-0.06 -0.06,-0.029 c -0.623,-0.563 -1.216,-1.127 -1.779,-1.691 -0.565,-0.563 -1.128,-1.157 -1.691,-1.78 l -0.03,-0.029 v -0.03 l -0.207,-0.236 -0.06,-0.061 -0.06,-0.059 -0.06,-0.06 -0.03,-0.029 -0.03,-0.03 -0.028,-0.059 -0.06,-0.06 -0.06,-0.06 -0.06,-0.06 -0.06,-0.06 -0.03,-0.059 -0.058,-0.06 -0.03,-0.029 -0.03,-0.03 -0.06,-0.059 -0.03,-0.06 -0.06,-0.06 -0.118,-0.119 -0.03,-0.088 -0.06,-0.06 -0.119,-0.119 -0.06,-0.06 -0.147,-0.178 -0.06,-0.059 -0.03,-0.061 v -0.029 l -0.386,-0.475 z m 15.636,-10.296 1.276,1.336 1.335,1.306 0.06,0.029 0.028,0.059 0.119,0.09 0.03,0.059 0.06,0.03 0.06,0.06 0.03,0.029 0.058,0.06 0.06,0.029 0.03,0.06 h 0.03 l 0.03,0.03 0.06,0.059 0.088,0.09 0.06,0.028 0.03,0.06 0.06,0.03 0.06,0.029 v 0.03 l 0.03,0.029 0.06,0.029 0.088,0.09 0.06,0.059 0.03,0.03 0.119,0.089 v 0 l 0.028,0.029 0.269,0.208 0.03,0.029 0.86,0.712 0.03,0.03 v 0 l 0.06,0.029 0.326,0.267 0.03,0.03 h 0.028 l 0.03,0.029 0.06,0.06 0.06,0.03 0.06,0.029 0.03,0.06 0.06,0.029 0.058,0.03 0.03,0.028 0.03,0.03 0.06,0.029 0.06,0.061 0.03,0.029 0.06,0.029 0.058,0.06 0.06,0.029 0.06,0.03 v 0.029 l 0.06,0.029 0.03,0.03 0.06,0.029 0.058,0.06 0.06,0.029 0.06,0.029 0.06,0.061 0.06,0.029 v 0 l 0.03,0.029 0.058,0.06 0.06,0.029 0.06,0.03 0.06,0.059 0.06,0.03 0.058,0.029 0.03,0.03 0.03,0.029 0.06,0.029 0.03,0.03 0.089,0.06 0.03,0.029 0.058,0.03 0.06,0.059 0.06,0.03 0.03,0.029 h 0.03 l 0.06,0.059 0.06,0.03 0.058,0.029 0.06,0.06 0.09,0.06 c 6.824,4.629 15.071,7.299 23.854,7.566 h 0.089 0.476 0.088 0.505 c 12.017,0 22.965,-4.718 31.035,-12.403 v 0 l 0.623,-0.593 0.03,-0.06 0.06,-0.059 0.06,-0.06 v 0 l 0.058,-0.03 0.03,-0.06 c 7.833,-7.892 12.759,-18.662 13.085,-30.56 v -0.09 -0.475 -0.089 -0.504 -0.415 -0.09 -0.059 -0.06 c -0.03,-2.463 -0.267,-4.896 -0.683,-7.239 l -0.03,-0.06 v -0.148 l -0.03,-0.06 v -0.03 -0.028 l -0.03,-0.06 c -1.126,-6.231 -3.59,-12.017 -7.031,-17.062 l -0.03,-0.029 -0.03,-0.059 -0.03,-0.06 -0.03,-0.06 -0.058,-0.06 v -0.03 l -0.03,-0.029 -0.06,-0.089 -0.06,-0.06 -0.06,-0.118 -0.06,-0.03 -0.058,-0.118 v 0 l -0.03,-0.06 -0.06,-0.029 -0.03,-0.06 -0.03,-0.06 -0.03,-0.059 -0.06,-0.029 -0.03,-0.061 -0.03,-0.059 v 0 l -0.028,-0.06 -0.06,-0.03 -0.03,-0.059 -0.03,-0.06 -0.06,-0.06 -0.03,-0.059 -0.03,-0.03 -0.03,-0.06 -0.03,-0.029 -0.028,-0.029 -0.03,-0.03 -0.03,-0.06 -0.06,-0.059 -0.03,-0.061 -0.03,-0.029 -0.03,-0.059 -0.06,-0.06 -0.03,-0.03 v -0.029 l -0.028,-0.029 -0.06,-0.06 -0.149,-0.179 -0.03,-0.059 -0.03,-0.06 -0.03,-0.03 -0.028,-0.029 c -0.595,-0.741 -1.218,-1.482 -1.871,-2.225 l -0.03,-0.03 -0.058,-0.06 -0.03,-0.059 -0.06,-0.029 -0.03,-0.03 -0.03,-0.029 -0.03,-0.06 -0.06,-0.029 -0.03,-0.06 -0.058,-0.06 -0.03,-0.029 -0.06,-0.06 -0.06,-0.06 v -0.029 l -0.03,-0.029 -0.06,-0.03 -0.03,-0.06 -0.058,-0.059 -0.06,-0.03 -0.03,-0.06 -0.06,-0.059 -0.296,-0.297 -0.06,-0.06 -0.06,-0.089 h -0.03 l -0.058,-0.06 -0.03,-0.06 -0.267,-0.267 -0.268,-0.237 -0.058,-0.06 -0.03,-0.06 v 0 l -0.119,-0.089 -0.06,-0.06 -0.03,-0.059 -0.06,-0.03 -0.088,-0.118 h -0.03 l -0.089,-0.09 -0.06,-0.059 -0.03,-0.029 -0.058,-0.06 -0.06,-0.03 -0.06,-0.059 -0.03,-0.03 v -0.03 l -0.06,-0.029 -0.06,-0.059 -0.028,-0.03 -0.06,-0.06 -0.06,-0.059 -0.03,-0.029 -0.06,-0.061 h -0.03 l -0.03,-0.029 -0.058,-0.059 -0.03,-0.03 -0.06,-0.06 c -0.832,-0.742 -1.691,-1.483 -2.581,-2.166 h -0.03 l -0.03,-0.029 -1.009,-0.771 -0.06,-0.029 -0.06,-0.061 -0.058,-0.029 -0.03,-0.029 h -0.03 l -0.06,-0.059 -0.06,-0.03 -0.03,-0.06 -0.06,-0.029 -0.058,-0.029 -0.06,-0.03 -0.06,-0.06 -0.06,-0.029 -0.06,-0.029 -0.058,-0.061 -0.06,-0.029 -0.06,-0.029 -0.03,-0.06 -0.06,-0.03 -0.06,-0.029 v 0 l -0.058,-0.059 -0.06,-0.029 -0.06,-0.03 -0.06,-0.06 -0.089,-0.029 -0.058,-0.06 c -6.796,-4.599 -14.954,-7.27 -23.677,-7.565 h -0.06 -0.06 -0.06 -0.03 -0.06 -0.058 -0.089 -0.06 -0.089 -0.058 -0.06 -0.06 -0.03 -0.06 l -0.089,-0.03 h -0.058 -0.06 -0.089 -0.06 -0.087 -0.06 -0.089 -0.06 -0.06 -0.088 -0.06 -0.089 l -0.06,0.03 h -0.06 -0.028 -0.06 -0.06 -0.089 -0.06 -0.058 -0.089 -0.06 -0.06 -0.03 -0.06 -0.058 -0.089 c -11.839,0.355 -22.521,5.281 -30.352,13.055 l -0.03,0.059 -0.06,0.03 v 0 l -0.06,0.06 -0.06,0.059 c -7.803,7.863 -12.757,18.634 -13.055,30.561 v 0.06 0.505 0.059 0.505 0.444 0.06 0.089 0.06 c 0.03,2.581 0.298,5.074 0.742,7.537 v 0.028 0.061 l 0.06,0.326 h 0.03 c 1.157,6.111 3.59,11.809 6.972,16.764 l 0.06,0.059 0.03,0.06 0.03,0.06 0.03,0.029 0.03,0.03 0.03,0.029 0.03,0.06 0.03,0.059 0.028,0.061 0.06,0.029 0.06,0.118 0.03,0.06 0.06,0.029 v 0.03 l 0.03,0.029 0.03,0.06 0.058,0.059 0.03,0.061 0.03,0.029 0.03,0.059 0.06,0.06 0.03,0.061 v 0 l 0.03,0.028 0.03,0.06 0.06,0.06 0.028,0.06 0.03,0.029 0.03,0.06 0.06,0.059 0.03,0.061 0.03,0.029 v 0 l 0.06,0.06 0.03,0.059 0.177,0.238 0.06,0.059 0.06,0.09 0.06,0.059 0.058,0.089 0.06,0.061 0.089,0.147 v 0 l 0.06,0.06 0.06,0.089 0.058,0.059 0.089,0.148 0.06,0.03 v 0.029 l 0.919,1.068 0.03,0.06 0.03,0.06 0.06,0.029 v 0.029 l 0.03,0.03 0.058,0.06 0.03,0.029 0.06,0.059 0.03,0.061 0.06,0.029 0.03,0.059 0.06,0.06 v 0 l 0.028,0.03 0.06,0.059 0.03,0.06 0.06,0.03 0.03,0.06 0.06,0.059 0.03,0.03 0.058,0.06 0.03,0.028 v 0.03 l 0.06,0.03 0.03,0.06 0.06,0.059 z m -30.204,-36.078 v 11.244 h 11.304 c -0.119,-1.038 -0.177,-2.106 -0.237,-3.174 v -0.09 -0.297 l -0.03,-0.088 v -0.09 -0.059 0 -0.09 -0.059 -0.09 -0.059 -0.089 -0.089 -0.06 -0.089 l -0.03,-0.06 v -0.09 -0.089 -0.06 0 -0.088 -0.061 -0.088 -0.06 -0.089 -0.06 0 -0.475 -0.445 -0.06 -0.089 -0.06 0 -0.088 -0.09 -0.148 -0.06 l 0.03,-0.148 v -0.089 -0.06 -0.029 -0.059 -0.09 -0.059 -0.09 -0.089 -0.06 -0.088 -0.06 -0.06 l 0.03,-0.029 v -0.09 -0.059 -0.179 -0.06 -0.088 -0.09 c 0.06,-1.009 0.147,-2.017 0.237,-2.996 H 117.286 Z M 274.418,197.662 c 3.413,3.383 8.546,-1.75 5.163,-5.162 l -5.163,-5.133 c -3.381,-3.412 -8.544,1.75 -5.162,5.133 z m 20.622,20.621 c 3.381,3.383 8.544,-1.75 5.162,-5.162 l -5.162,-5.163 c -3.383,-3.382 -8.546,1.78 -5.164,5.163 z m 20.62,20.621 c 3.383,3.383 8.546,-1.781 5.162,-5.163 l -5.162,-5.162 c -3.383,-3.383 -8.545,1.78 -5.162,5.162 z m 20.62,20.621 c 3.384,3.382 8.546,-1.781 5.163,-5.163 l -5.163,-5.163 c -3.382,-3.382 -8.544,1.78 -5.163,5.163 z m 20.622,20.621 c 3.381,3.382 8.543,-1.781 5.162,-5.164 l -5.162,-5.162 c -3.383,-3.383 -8.546,1.78 -5.162,5.162 z m 20.619,20.62 c 3.384,3.383 8.547,-1.779 5.163,-5.162 l -5.163,-5.162 c -3.381,-3.383 -8.545,1.78 -5.162,5.162 z m 20.622,20.621 c 3.383,3.383 8.546,-1.779 5.164,-5.162 l -5.164,-5.162 c -3.381,-3.383 -8.544,1.779 -5.162,5.162 z m 20.622,20.621 c 3.381,3.383 8.544,-1.779 5.162,-5.162 l -5.162,-5.163 c -3.323,-3.323 -8.486,1.84 -5.163,5.163 z m 18.574,18.574 c 3.381,3.382 8.544,-1.781 5.162,-5.163 l -3.116,-3.115 c -3.323,-3.323 -8.486,1.839 -5.163,5.163 z M 253.798,166.746 c -3.383,-3.412 -8.546,1.75 -5.133,5.133 l 5.133,5.162 c 3.411,3.412 8.543,-1.75 5.163,-5.162 z M 199.59,272.995 c 3.324,3.323 8.486,-1.839 5.163,-5.163 l -5.133,-5.162 c -3.383,-3.383 -8.545,1.78 -5.162,5.162 z m 20.62,20.621 c 3.413,3.382 8.576,-1.78 5.163,-5.163 l -5.163,-5.162 c -3.352,-3.383 -8.514,1.779 -5.132,5.162 z m 20.623,20.62 c 3.381,3.383 8.544,-1.779 5.163,-5.162 l -5.163,-5.162 c -3.383,-3.383 -8.546,1.779 -5.163,5.162 z m 20.619,20.621 c 3.413,3.383 8.546,-1.78 5.162,-5.162 l -5.162,-5.163 c -3.381,-3.382 -8.543,1.78 -5.162,5.163 z m 20.622,20.622 c 3.381,3.383 8.544,-1.781 5.162,-5.163 l -5.162,-5.162 c -3.384,-3.382 -8.546,1.75 -5.164,5.162 z m 20.62,20.591 c 3.383,3.411 8.546,-1.752 5.163,-5.134 l -5.163,-5.163 c -3.384,-3.382 -8.546,1.781 -5.163,5.163 z m 20.62,20.651 c 3.383,3.382 8.545,-1.78 5.162,-5.164 l -5.162,-5.162 c -3.381,-3.383 -8.544,1.78 -5.162,5.162 z m 20.623,20.62 c 3.382,3.383 8.544,-1.78 5.162,-5.163 l -5.162,-5.162 c -3.384,-3.383 -8.546,1.78 -5.163,5.162 z m 18.572,18.573 c 3.413,3.383 8.575,-1.779 5.162,-5.162 l -3.114,-3.115 c -3.382,-3.383 -8.516,1.78 -5.133,5.162 z M 179,242.049 c -3.413,-3.383 -8.576,1.781 -5.165,5.163 l 5.134,5.162 c 3.412,3.382 8.574,-1.75 5.163,-5.162 z m 230.952,225.286 c 1.988,0 3.62,1.632 3.62,3.65 0,1.987 -1.632,3.648 -3.62,3.648 H 199.797 c -2.016,0 -3.648,-1.661 -3.648,-3.648 0,-2.019 1.632,-3.65 3.648,-3.65 z M 286.88,478.699 c 2.019,0 3.648,1.632 3.648,3.649 0,2.017 -1.63,3.649 -3.648,3.649 H 141.466 c -1.988,0 -3.648,-1.632 -3.648,-3.649 0,-2.017 1.66,-3.649 3.648,-3.649 z m -160.278,0 c 2.018,0 3.65,1.632 3.65,3.649 0,2.017 -1.632,3.649 -3.65,3.649 h -18.188 c -2.016,0 -3.648,-1.632 -3.648,-3.649 0,-2.017 1.632,-3.649 3.648,-3.649 z m 312.961,-2.077 c 1.988,0 3.648,1.632 3.648,3.649 0,2.017 -1.66,3.649 -3.648,3.649 h -68.925 c -1.988,0 -3.621,-1.632 -3.621,-3.649 0,-2.017 1.633,-3.649 3.621,-3.649 z m -299.759,-113.607 -7.951,7.951 7.98,8.012 c 0.683,-0.86 1.396,-1.692 2.138,-2.493 l 0.06,-0.059 0.058,-0.06 0.03,-0.03 0.06,-0.089 0.06,-0.029 0.06,-0.06 0.089,-0.118 v 0 l 0.058,-0.06 0.06,-0.06 0.06,-0.06 0.06,-0.059 0.03,-0.06 0.03,-0.03 0.028,-0.029 0.06,-0.029 0.06,-0.06 0.03,-0.06 0.06,-0.059 0.06,-0.06 0.03,-0.03 0.028,-0.029 0.03,-0.06 0.06,-0.03 0.06,-0.059 0.06,-0.059 0.06,-0.061 v 0 l 0.03,-0.059 0.058,-0.029 0.06,-0.061 0.06,-0.059 0.03,-0.06 0.06,-0.03 v 0 l 0.06,-0.059 0.058,-0.06 0.03,-0.06 0.06,-0.059 0.06,-0.029 0.03,-0.061 h 0.03 l 0.06,-0.059 0.028,-0.06 0.06,-0.03 0.06,-0.059 0.06,-0.06 0.03,-0.03 0.03,-0.029 0.06,-0.029 0.028,-0.06 0.06,-0.06 0.06,-0.059 0.06,-0.06 v 0 l 0.06,-0.03 0.06,-0.059 0.058,-0.061 0.06,-0.059 0.03,-0.029 0.06,-0.06 v 0 l 0.12,-0.118 0.058,-0.061 0.06,-0.029 0.089,-0.089 0.03,-0.03 0.06,-0.059 0.058,-0.029 c 0.802,-0.742 1.632,-1.454 2.463,-2.137 z"
         style="clip-rule:evenodd;fill:#ffffff;fill-opacity:1;fill-rule:evenodd"
         id="path1993" /></g></g><g
     id="Layer_1"
     transform="translate(-36.090181,-26.003068)" /></svg>
