<?xml version="1.0" encoding="UTF-8" standalone="no"?>
<svg
   width="25.000057"
   height="24.999763"
   viewBox="0 0 25.000057 24.999763"
   version="1.1"
   preserveAspectRatio="xMidYMid"
   id="svg166"
   sodipodi:docname="expo.svg"
   inkscape:version="1.2.1 (9c6d41e410, 2022-07-14)"
   xmlns:inkscape="http://www.inkscape.org/namespaces/inkscape"
   xmlns:sodipodi="http://sodipodi.sourceforge.net/DTD/sodipodi-0.dtd"
   xmlns="http://www.w3.org/2000/svg"
   xmlns:svg="http://www.w3.org/2000/svg">
  <defs
     id="defs170" />
  <sodipodi:namedview
     id="namedview168"
     pagecolor="#505050"
     bordercolor="#ffffff"
     borderopacity="1"
     inkscape:showpageshadow="0"
     inkscape:pageopacity="0"
     inkscape:pagecheckerboard="1"
     inkscape:deskcolor="#505050"
     showgrid="false"
     inkscape:zoom="20.932853"
     inkscape:cx="19.060947"
     inkscape:cy="13.185016"
     inkscape:window-width="1366"
     inkscape:window-height="705"
     inkscape:window-x="270"
     inkscape:window-y="1072"
     inkscape:window-maximized="1"
     inkscape:current-layer="svg166" />
  <g
     id="g164"
     style="fill:#ff0000;fill-opacity:0;stroke:#ff0000;stroke-width:15.6555228;stroke-dasharray:none;stroke-opacity:1"
     transform="matrix(0.0905601,0,0,0.10137024,0.90833592,1.0167638)">
    <path
       d="M 159.032,16.273564 C 149.60456,1.9079351 147.35993,0 128.16835,0 v 0 h -0.22447 -0.22446 V 0 C 108.52784,0 106.39544,1.9079351 96.855765,16.273564 87.989478,29.741341 0,190.90574 0,195.395 c 0,6.50943 1.6834722,12.68216 7.7439719,21.43621 6.1727311,8.86629 16.8347221,13.80448 24.5786931,5.94827 5.27488,-5.27488 61.727313,-102.57957 88.999565,-139.391492 v 0 c 3.25471,-4.601491 9.9886,-4.601491 13.35554,0 v 0 c 27.27225,36.811922 83.72468,134.116612 88.99956,139.391492 7.74398,7.85621 18.40597,2.91802 24.5787,-5.94827 C 254.31653,208.07716 256,201.90443 256,195.395 255.88777,190.90574 167.89829,29.62911 159.032,16.273564 Z"
       fill="#1173B6"
       id="path162"
       style="fill:#ff0000;fill-opacity:0;stroke:#ff0000;stroke-width:15.6555228;stroke-dasharray:none;stroke-opacity:1" />
  </g>
</svg>
