<?xml version="1.0" encoding="UTF-8" standalone="no"?>
<!-- Generator: Adobe Illustrator 18.1.1, SVG Export Plug-In . SVG Version: 6.00 Build 0)  -->

<svg
   version="1.1"
   id="Capa_1"
   x="0px"
   y="0px"
   viewBox="0 0 612 612"
   style="enable-background:new 0 0 612 612;"
   xml:space="preserve"
   sodipodi:docname="glass.svg"
   inkscape:version="1.2.1 (9c6d41e410, 2022-07-14)"
   xmlns:inkscape="http://www.inkscape.org/namespaces/inkscape"
   xmlns:sodipodi="http://sodipodi.sourceforge.net/DTD/sodipodi-0.dtd"
   xmlns="http://www.w3.org/2000/svg"
   xmlns:svg="http://www.w3.org/2000/svg"><defs
   id="defs47" /><sodipodi:namedview
   id="namedview45"
   pagecolor="#505050"
   bordercolor="#ffffff"
   borderopacity="1"
   inkscape:showpageshadow="0"
   inkscape:pageopacity="0"
   inkscape:pagecheckerboard="1"
   inkscape:deskcolor="#505050"
   showgrid="false"
   inkscape:zoom="0.9003268"
   inkscape:cx="208.81307"
   inkscape:cy="306.55535"
   inkscape:window-width="1366"
   inkscape:window-height="705"
   inkscape:window-x="-8"
   inkscape:window-y="-8"
   inkscape:window-maximized="1"
   inkscape:current-layer="Capa_1" />
<g
   id="g12"
   style="fill:#ffffff;fill-opacity:1">
	<g
   id="g10"
   style="fill:#ffffff;fill-opacity:1">
		<g
   id="g8"
   style="fill:#ffffff;fill-opacity:1">
			<path
   d="M306,550.583c4.778,0,9.451-1.937,12.823-5.323c3.372-3.372,5.323-8.045,5.323-12.823s-1.949-9.466-5.323-12.838     c-3.372-3.372-8.045-5.308-12.823-5.308c-4.778,0-9.466,1.934-12.835,5.308c-3.372,3.387-5.311,8.06-5.311,12.838     s1.937,9.451,5.311,12.823C296.534,548.646,301.222,550.583,306,550.583z"
   id="path2"
   style="fill:#ffffff;fill-opacity:1" />
			<path
   d="M448.265,0h-284.53c-30.33,0-55.01,24.675-55.01,55.007V556.99c0,30.332,24.678,55.01,55.01,55.01h284.53     c30.335,0,55.01-24.678,55.01-55.01V55.007C503.275,24.675,478.6,0,448.265,0z M466.984,556.99     c0,10.322-8.397,18.719-18.719,18.719h-284.53c-10.322,0-18.719-8.397-18.719-18.719v-62.63h321.967V556.99z M466.984,458.069     H145.016V55.007c0-10.319,8.397-18.719,18.719-18.719h284.53c10.322,0,18.719,8.4,18.719,18.719V458.069z"
   id="path4"
   style="fill:#ffffff;fill-opacity:1" />
			<path
   d="M306,54.499h-87.763c-30.332,0-55.01,24.678-55.01,55.01v295.41c0,10.021,8.125,18.146,18.146,18.146     s18.146-8.125,18.146-18.146v-295.41c0-10.322,8.397-18.719,18.719-18.719H306c10.021,0,18.146-8.122,18.146-18.146     C324.146,62.624,316.021,54.499,306,54.499z"
   id="path6"
   style="fill:#ffffff;fill-opacity:1" />
		</g>
	</g>
</g>
<g
   id="g14">
</g>
<g
   id="g16">
</g>
<g
   id="g18">
</g>
<g
   id="g20">
</g>
<g
   id="g22">
</g>
<g
   id="g24">
</g>
<g
   id="g26">
</g>
<g
   id="g28">
</g>
<g
   id="g30">
</g>
<g
   id="g32">
</g>
<g
   id="g34">
</g>
<g
   id="g36">
</g>
<g
   id="g38">
</g>
<g
   id="g40">
</g>
<g
   id="g42">
</g>
</svg>
