<svg width="24" height="24" viewBox="0 0 24 24" fill="none" xmlns="http://www.w3.org/2000/svg">
<path d="M17.25 3.75H6.75C5.09315 3.75 3.75 5.09315 3.75 6.75V17.25C3.75 18.9069 5.09315 20.25 6.75 20.25H17.25C18.9069 20.25 20.25 18.9069 20.25 17.25V6.75C20.25 5.09315 18.9069 3.75 17.25 3.75Z" stroke="#9333ea" stroke-width="1.5" stroke-linecap="round" stroke-linejoin="round"/>
<path d="M11.5 11.25V15.75C11.5 16.1478 11.342 16.5294 11.0607 16.8107C10.7794 17.092 10.3978 17.25 10 17.25H9M17.25 11.25H15.75C15.3522 11.25 14.9706 11.408 14.6893 11.6893C14.408 11.9706 14.25 12.3522 14.25 12.75C14.25 13.1478 14.408 13.5294 14.6893 13.8107C14.9706 14.092 15.3522 14.25 15.75 14.25C16.1478 14.25 16.5294 14.408 16.8107 14.6893C17.092 14.9706 17.25 15.3522 17.25 15.75C17.25 16.1478 17.092 16.5294 16.8107 16.8107C16.5294 17.092 16.1478 17.25 15.75 17.25H14.25" stroke="#9333ea" stroke-width="1.5" stroke-linecap="round" stroke-linejoin="round"/>
</svg>
