<?xml version="1.0" encoding="UTF-8" standalone="no"?>
<svg
   width="36px"
   height="36px"
   viewBox="0 0 36 36"
   version="1.1"
   preserveAspectRatio="xMidYMid meet"
   id="svg2198"
   sodipodi:docname="language.svg"
   inkscape:version="1.2.1 (9c6d41e410, 2022-07-14)"
   xmlns:inkscape="http://www.inkscape.org/namespaces/inkscape"
   xmlns:sodipodi="http://sodipodi.sourceforge.net/DTD/sodipodi-0.dtd"
   xmlns="http://www.w3.org/2000/svg"
   xmlns:svg="http://www.w3.org/2000/svg">
  <defs
     id="defs2202" />
  <sodipodi:namedview
     id="namedview2200"
     pagecolor="#505050"
     bordercolor="#22ff59"
     borderopacity="1"
     inkscape:showpageshadow="0"
     inkscape:pageopacity="0"
     inkscape:pagecheckerboard="1"
     inkscape:deskcolor="#505050"
     showgrid="false"
     inkscape:zoom="15.305556"
     inkscape:cx="12.283122"
     inkscape:cy="18.032668"
     inkscape:window-width="1366"
     inkscape:window-height="705"
     inkscape:window-x="-8"
     inkscape:window-y="-8"
     inkscape:window-maximized="1"
     inkscape:current-layer="svg2198" />
  <title
     id="title2188">language-line</title>
  <path
     d="M30,3H14v5h2V5h14c0.6,0,1,0.4,1,1v11c0,0.6-0.4,1-1,1H17v7h-5.3L8,27.9V25H5c-0.6,0-1-0.4-1-1V13c0-0.6,0.4-1,1-1h13v-2H5   c-1.7,0-3,1.3-3,3v11c0,1.7,1.3,3,3,3h1v5.1l6.3-5.1H19v-7h11c1.7,0,3-1.3,3-3V6C33,4.3,31.7,3,30,3z"
     class="clr-i-outline clr-i-outline-path-1"
     id="path2190"
     style="fill:#22ff59;fill-opacity:1" />
  <path
     d="M6.2,22.9h2.4l0.6-1.6h3.1l0.6,1.6h2.4L11.9,14H9.5L6.2,22.9z M10.7,16.5l1,3.1h-2L10.7,16.5z"
     class="clr-i-outline clr-i-outline-path-2"
     id="path2192"
     style="fill:#22ff59;fill-opacity:1" />
  <path
     d="M20,17c1.1,0,2.6-0.3,4-1c1.4,0.7,3,1,4,1v-2c0,0-1,0-2.1-0.4c1.2-1.2,2.1-3,2.1-5.6V8h-3V6h-2v2h-3v2h5.9   c-0.2,1.8-1,2.9-1.9,3.6c-0.6-0.5-1.2-1.2-1.6-2.1h-2.1c0.4,1.3,1,2.3,1.8,3.1C21.1,15,20.2,15,20,15V17z"
     class="clr-i-outline clr-i-outline-path-3"
     id="path2194"
     style="fill:#22ff59;fill-opacity:1" />
  <rect
     x="0"
     y="0"
     width="36"
     height="36"
     fill-opacity="0"
     id="rect2196" />
</svg>
