<?xml version="1.0" encoding="iso-8859-1"?>
<!-- Generator: Adobe Illustrator 19.0.0, SVG Export Plug-In . SVG Version: 6.00 Build 0)  -->
<svg version="1.1" id="Layer_1" xmlns="http://www.w3.org/2000/svg" xmlns:xlink="http://www.w3.org/1999/xlink" x="0px" y="0px"
	 viewBox="0 0 512 512" style="enable-background:new 0 0 512 512;" xml:space="preserve">
<path style="fill:#000000;" d="M342.64,209.773c0-6.785-0.779-13.381-2.257-19.717l18.627-15.133l-21.325-36.942l-22.442,8.578
	c-9.587-8.989-21.22-15.819-34.123-19.723l-3.794-23.701h-42.654l-3.79,23.701c-12.908,3.903-24.542,10.734-34.127,19.723
	l-22.436-8.578l-21.329,36.94l18.626,15.133c-1.471,6.336-2.256,12.932-2.256,19.717c0,6.779,0.785,13.381,2.256,19.713
	l-18.626,15.133l21.329,36.939l22.438-8.578c9.587,8.993,21.22,15.825,34.127,19.727l3.79,23.695h42.654l3.794-23.695
	c12.903-3.903,24.538-10.734,34.123-19.727l22.442,8.578l21.325-36.939l-18.627-15.133
	C341.861,223.154,342.64,216.553,342.64,209.773z M255.999,243.107c-18.411,0-33.336-14.925-33.336-33.336
	s14.925-33.336,33.336-33.336s33.336,14.925,33.336,33.336S274.41,243.107,255.999,243.107z"/>
<g>
	<path style="fill:#22ff59;" d="M277.327,330.838h-42.654c-7.091,0-13.133-5.151-14.253-12.153l-2.439-15.249
		c-8.596-3.501-16.725-8.202-24.069-13.915l-14.442,5.521c-6.623,2.533-14.106-0.123-17.652-6.264l-21.329-36.939
		c-3.546-6.141-2.104-13.948,3.398-18.42l11.993-9.744c-0.634-4.601-0.954-9.252-0.954-13.901c0-4.65,0.32-9.301,0.955-13.903
		l-11.994-9.744c-5.503-4.471-6.944-12.278-3.398-18.418l21.329-36.94c3.548-6.141,11.03-8.796,17.652-6.265l14.445,5.521
		c7.342-5.711,15.472-10.411,24.066-13.911l2.439-15.254c1.12-7.003,7.16-12.154,14.253-12.154h42.654
		c7.091,0,13.131,5.15,14.253,12.151l2.442,15.257c8.594,3.5,16.721,8.199,24.063,13.911l14.449-5.522
		c6.625-2.53,14.107,0.124,17.652,6.267l21.325,36.94c3.545,6.141,2.104,13.947-3.399,18.418l-11.991,9.742
		c0.634,4.596,0.953,9.246,0.953,13.906c0,4.66-0.319,9.309-0.953,13.902l11.991,9.742c5.503,4.471,6.944,12.277,3.399,18.418
		l-21.325,36.939c-3.546,6.141-11.027,8.796-17.652,6.267l-14.448-5.522c-7.341,5.713-15.471,10.414-24.066,13.916l-2.442,15.252
		C290.457,325.688,284.417,330.838,277.327,330.838z M246.98,301.971h18.041l1.849-11.544c0.873-5.456,4.783-9.933,10.073-11.534
		c10.529-3.185,20.358-8.871,28.428-16.439c4.03-3.781,9.864-4.927,15.028-2.956l10.945,4.183l9.018-15.621l-9.076-7.372
		c-4.285-3.481-6.209-9.103-4.955-14.481c1.247-5.345,1.879-10.874,1.879-16.434c0-5.56-0.632-11.09-1.879-16.441
		c-1.254-5.376,0.67-10.998,4.955-14.479l9.076-7.372l-9.018-15.622l-10.945,4.183c-5.16,1.97-10.994,0.826-15.025-2.953
		c-8.071-7.569-17.903-13.253-28.429-16.437c-5.288-1.599-9.2-6.078-10.073-11.534l-1.849-11.549h-18.04l-1.846,11.547
		c-0.872,5.457-4.785,9.937-10.074,11.536c-10.529,3.184-20.361,8.868-28.432,16.435c-4.03,3.78-9.862,4.927-15.026,2.953
		l-10.94-4.181l-9.021,15.622l9.074,7.372c4.281,3.478,6.205,9.091,4.959,14.464c-1.248,5.381-1.882,10.917-1.882,16.455
		s0.632,11.072,1.881,16.448c1.247,5.373-0.677,10.988-4.958,14.466l-9.074,7.372l9.021,15.621l10.94-4.181
		c5.16-1.972,11-0.827,15.029,2.956c8.067,7.569,17.899,13.253,28.43,16.438c5.29,1.599,9.201,6.079,10.073,11.535L246.98,301.971z
		 M255.999,257.541c-26.341,0-47.77-21.43-47.77-47.771s21.429-47.77,47.77-47.77s47.77,21.429,47.77,47.77
		S282.34,257.541,255.999,257.541z M255.999,190.867c-10.424,0-18.903,8.48-18.903,18.903s8.479,18.905,18.903,18.905
		c10.424,0,18.903-8.48,18.903-18.905C274.902,199.347,266.423,190.867,255.999,190.867z"/>
	<path style="fill:#22ff59;" d="M255.999,471.707c-7.971,0-14.433-6.462-14.433-14.433v-69.952c0-7.971,6.462-14.433,14.433-14.433
		c7.971,0,14.433,6.462,14.433,14.433v69.952C270.432,465.245,263.971,471.707,255.999,471.707z"/>
	<path style="fill:#22ff59;" d="M189.724,442.773c-7.971,0-14.433-6.462-14.433-14.433V395.14
		c-35.021-14.914-65.042-39.11-87.26-70.44c-24.741-34.885-37.818-76.005-37.818-118.914C50.212,92.316,142.527,0,255.999,0
		s205.788,92.316,205.788,205.788c0,70.532-35.511,135.369-94.992,173.438c-6.711,4.297-15.638,2.338-19.937-4.376
		c-4.297-6.714-2.338-15.64,4.376-19.937c51.148-32.737,81.686-88.486,81.686-149.125c0-97.555-79.367-176.922-176.922-176.922
		S79.079,108.233,79.079,205.788c0,73.762,46.473,140.481,115.644,166.021c5.669,2.093,9.434,7.497,9.434,13.54v42.992
		C204.157,436.311,197.695,442.773,189.724,442.773z"/>
</g>
<path style="fill:#000000;" d="M189.724,424.678v28.52c0,16.532,13.401,29.934,29.934,29.934h72.686
	c16.532,0,29.934-13.401,29.934-29.934v-28.52H189.724z"/>
<g>
	<path style="fill:#22ff59;" d="M292.342,497.565h-72.684c-24.464,0-44.368-19.903-44.368-44.368v-28.52
		c0-7.971,6.462-14.433,14.433-14.433h132.553c7.971,0,14.433,6.462,14.433,14.433v28.52
		C336.71,477.663,316.806,497.565,292.342,497.565z M204.157,439.111v14.087c0,8.547,6.954,15.501,15.501,15.501h72.684
		c8.547,0,15.501-6.954,15.501-15.501v-14.087H204.157z"/>
	<path style="fill:#22ff59;" d="M287.031,512h-62.063c-7.971,0-14.433-6.462-14.433-14.433c0-7.971,6.462-14.433,14.433-14.433
		h62.063c7.971,0,14.433,6.462,14.433,14.433C301.464,505.538,295.002,512,287.031,512z"/>
</g>
<g>
</g>
<g>
</g>
<g>
</g>
<g>
</g>
<g>
</g>
<g>
</g>
<g>
</g>
<g>
</g>
<g>
</g>
<g>
</g>
<g>
</g>
<g>
</g>
<g>
</g>
<g>
</g>
<g>
</g>
</svg>
