<?xml version="1.0" encoding="UTF-8" standalone="no"?>
<svg
   width="15"
   height="15"
   viewBox="0 0 15 15"
   fill=""
   version="1.1"
   id="svg4322"
   sodipodi:docname="react-red.svg"
   inkscape:version="1.2.1 (9c6d41e410, 2022-07-14)"
   xmlns:inkscape="http://www.inkscape.org/namespaces/inkscape"
   xmlns:sodipodi="http://sodipodi.sourceforge.net/DTD/sodipodi-0.dtd"
   xmlns="http://www.w3.org/2000/svg"
   xmlns:svg="http://www.w3.org/2000/svg">
  <defs
     id="defs4326" />
  <sodipodi:namedview
     id="namedview4324"
     pagecolor="#505050"
     bordercolor="#ffffff"
     borderopacity="1"
     inkscape:showpageshadow="0"
     inkscape:pageopacity="0"
     inkscape:pagecheckerboard="1"
     inkscape:deskcolor="#505050"
     showgrid="false"
     inkscape:zoom="25.974389"
     inkscape:cx="1.2319828"
     inkscape:cy="8.5468806"
     inkscape:window-width="1366"
     inkscape:window-height="705"
     inkscape:window-x="270"
     inkscape:window-y="1072"
     inkscape:window-maximized="1"
     inkscape:current-layer="svg4322" />
  <path
     fill-rule="evenodd"
     clip-rule="evenodd"
     d="M 5.31537,1.1796767 C 4.91591,1.0522324 4.6196,1.0864111 4.40406,1.2148012 4.18851,1.3432023 4.00061,1.5974531 3.87946,2.0350241 3.75743,2.4757733 3.71578,3.0641903 3.77508,3.7746631 3.78469,3.8897908 3.79689,4.0074038 3.81168,4.1273042 4.33487,3.981088 4.89711,3.8656084 5.48788,3.7849893 5.89742,3.1539809 6.327,2.5849516 6.76281,2.0915158 6.74097,2.0720511 6.71917,2.0528393 6.69739,2.0338915 6.18865,1.5911298 5.71773,1.3080558 5.31537,1.1796767 Z M 7.49994,1.3346466 C 7.43924,1.2786828 7.37857,1.2243026 7.31796,1.1715609 6.746,0.67378128 6.16025,0.30419377 5.59401,0.1235338 5.02487,-0.05805652 4.44065,-0.05766833 3.92776,0.2478495 3.41488,0.55336402 3.09543,1.0912828 2.92282,1.7147252 2.75109,2.3349786 2.71259,3.076419 2.77927,3.8751868 2.7949,4.0624109 2.81643,4.2542977 2.84379,4.4502644 2.67409,4.5171372 2.51042,4.587705 2.35329,4.6617589 1.68286,4.977736 1.10837,5.3680968 0.694221,5.8295754 0.277951,6.2934182 0,6.8585216 0,7.4999772 0,8.1414217 0.27795,8.7065251 0.694221,9.1703679 1.10837,9.6318465 1.68286,10.022207 2.35329,10.338228 c 0.15713,0.07401 0.32079,0.144611 0.49049,0.211473 -0.02736,0.195967 -0.0489,0.387864 -0.06453,0.575144 -0.06668,0.798712 -0.02818,1.540131 0.14355,2.160472 0.17261,0.623421 0.49206,1.161284 1.00494,1.466781 0.51289,0.305607 1.09711,0.305937 1.66625,0.124376 0.56624,-0.18068 1.15199,-0.55029 1.72395,-1.048015 0.06062,-0.05279 0.12129,-0.107111 0.182,-0.163085 0.06071,0.05597 0.12138,0.1103 0.18199,0.163085 0.57197,0.497725 1.15772,0.867335 1.72396,1.048015 0.56914,0.181561 1.15331,0.181231 1.66621,-0.124376 0.5129,-0.305497 0.8324,-0.84336 1.005,-1.466781 0.1717,-0.620341 0.2102,-1.36176 0.1435,-2.160472 -0.0156,-0.18728 -0.0371,-0.379177 -0.0645,-0.575144 0.1697,-0.06686 0.3334,-0.137463 0.4906,-0.211473 0.6704,-0.316021 1.2449,-0.7063815 1.6591,-1.1678601 C 14.722,8.7065251 15,8.1414217 15,7.4999772 15,6.8585216 14.722,6.2934182 14.3058,5.8295754 13.8916,5.3680968 13.3171,4.977736 12.6467,4.6617589 12.4895,4.587694 12.3258,4.5171152 12.1561,4.4502204 12.1834,4.2542647 12.205,4.0623999 12.2206,3.8751868 12.2873,3.076419 12.2488,2.3349786 12.0771,1.7147252 11.9045,1.0912828 11.585,0.55336402 11.0721,0.2478495 10.5592,-0.05766833 9.97501,-0.05805652 9.40587,0.1235338 8.83963,0.30419377 8.25388,0.67378128 7.68191,1.1715609 7.62131,1.2243026 7.56064,1.2786828 7.49994,1.3346466 Z m 0,1.5007179 C 7.27514,3.0884827 7.05016,3.3659153 6.82771,3.6655948 7.04936,3.6559394 7.27361,3.6510237 7.5,3.6510237 c 0.22635,0 0.45056,0.00492 0.67216,0.014571 C 7.94972,3.3659153 7.72474,3.0884827 7.49994,2.8353645 Z M 9.51199,3.7849673 C 9.10245,3.1539699 8.67287,2.5849406 8.23707,2.0915158 8.25891,2.0720511 8.28071,2.0528393 8.30249,2.0338915 8.81123,1.5911298 9.28215,1.3080558 9.68451,1.1796767 10.084,1.0522324 10.3803,1.0864111 10.5958,1.2148012 c 0.2156,0.1284011 0.4035,0.3826519 0.5246,0.8202229 0.122,0.4407492 0.1637,1.0291662 0.1044,1.739639 C 11.2152,3.8897798 11.203,4.0073818 11.1882,4.1272712 10.665,3.981066 10.1028,3.8655864 9.51199,3.7849673 Z M 8.94935,4.8238218 C 8.484,4.7760838 7.9991,4.7507247 7.5,4.7507247 c -0.49915,0 -0.98409,0.025359 -1.44948,0.073108 C 5.79069,5.2510887 5.53944,5.7079154 5.30171,6.1905522 5.08522,6.6300587 4.89116,7.0681906 4.71966,7.4999772 4.89117,7.9317747 5.08524,8.3699176 5.30173,8.8094461 5.53945,9.2920609 5.7907,9.7488766 6.05051,10.176132 c 0.46539,0.04773 0.95034,0.07313 1.44949,0.07313 0.49911,0 0.98401,-0.0254 1.44936,-0.07313 C 9.20918,9.7488876 9.46042,9.2920719 9.69815,8.8094461 9.91464,8.3699176 10.1087,7.9317747 10.2802,7.4999772 10.1087,7.0682016 9.91465,6.6300587 9.69817,6.1905522 9.46043,5.7079044 9.20918,5.2510777 8.94935,4.8238218 Z M 10.7728,6.0753255 C 10.7096,5.9391166 10.6445,5.8028856 10.5775,5.6667756 10.4696,5.4478691 10.3589,5.2333725 10.2456,5.0236595 c 0.2606,0.054556 0.5117,0.1165353 0.7522,0.1852336 -0.0632,0.2813915 -0.1382,0.5708218 -0.225,0.8664324 z m 0,2.8493033 C 10.7096,9.0608487 10.6445,9.1970907 10.5774,9.3332227 10.4696,9.5521071 10.3589,9.7665818 10.2456,9.9762948 10.5062,9.9217276 10.7573,9.8597375 10.9978,9.7910392 10.9346,9.5096587 10.8596,9.2202284 10.7728,8.9246288 Z m 1.1805,0.5353674 c -0.145,-0.6308875 -0.3419,-1.2895644 -0.5884,-1.96003 0.2465,-0.6704547 0.4434,-1.3291316 0.5884,-1.9600191 0.103,0.042822 0.2028,0.087052 0.2995,0.132602 0.5963,0.2810395 1.0469,0.6015804 1.3412,0.9295002 C 13.8862,6.9276048 14,7.2303965 14,7.4999772 c 0,0.2695697 -0.1138,0.5723613 -0.406,0.8979168 -0.2943,0.3279198 -0.7449,0.6484607 -1.3412,0.9295003 -0.0967,0.04555 -0.1965,0.08978 -0.2995,0.1326019 z m -0.7651,1.4126868 c -0.5232,0.14615 -1.0854,0.261729 -1.67619,0.342337 -0.40954,0.631008 -0.83913,1.199994 -1.27494,1.69343 0.02184,0.01946 0.04365,0.03871 0.06544,0.05762 0.50874,0.442739 0.97966,0.725912 1.38202,0.854248 0.39947,0.127455 0.69577,0.09325 0.91127,-0.03508 0.2156,-0.128445 0.4035,-0.382696 0.5246,-0.820267 0.1221,-0.44076 0.1637,-1.02921 0.1044,-1.739617 -0.0096,-0.115139 -0.0218,-0.232807 -0.0366,-0.352674 z m -3.68826,1.291929 c 0.22481,-0.253151 0.44979,-0.530606 0.67224,-0.830274 -0.22161,0.0097 -0.44583,0.01463 -0.67218,0.01463 -0.22639,0 -0.45065,-0.0049 -0.67231,-0.01463 0.22246,0.299668 0.44744,0.577123 0.67225,0.830274 z M 4.75426,9.9762618 C 4.64098,9.7665708 4.53025,9.5520962 4.42244,9.3332227 4.35539,9.1970907 4.29025,9.0608487 4.22704,8.9246288 4.14031,9.2202174 4.06531,9.5096367 4.00208,9.7910062 4.24253,9.8597155 4.49368,9.9216947 4.75426,9.9762618 Z M 3.81167,10.872683 c 0.52318,0.14615 1.08543,0.261619 1.67619,0.342227 0.40954,0.631008 0.83914,1.200104 1.27496,1.69354 -0.02185,0.01946 -0.04367,0.03871 -0.06545,0.05762 -0.50874,0.442739 -0.97966,0.725912 -1.38202,0.854248 -0.39946,0.127455 -0.69577,0.09325 -0.91131,-0.03508 C 4.18849,13.656796 4.00059,13.402545 3.87944,12.964974 3.75741,12.524214 3.71576,11.935764 3.77506,11.225357 3.78468,11.110218 3.79688,10.99255 3.81167,10.872683 Z M 3.04656,9.4599522 C 3.19156,8.8290758 3.38844,8.1704099 3.63494,7.4999772 3.38844,6.8295335 3.19157,6.1708676 3.04656,5.5399911 2.94366,5.5828025 2.84383,5.6270104 2.74721,5.6725491 2.15089,5.9535886 1.70026,6.2741295 1.40597,6.6020493 1.1138,6.9276048 1,7.2303965 1,7.4999772 1,7.7695469 1.1138,8.0723385 1.40597,8.397894 1.70026,8.7258138 2.15089,9.0463547 2.74721,9.3273943 2.84383,9.3729329 2.94366,9.4171408 3.04656,9.4599522 Z M 4.00208,5.2089261 C 4.06531,5.4903066 4.14031,5.7797259 4.22704,6.0753145 4.29024,5.9391166 4.35538,5.8028966 4.42242,5.6667756 4.53024,5.4478801 4.64098,5.2333945 4.75427,5.0236815 4.49369,5.0782487 4.24254,5.1402278 4.00208,5.2089261 Z M 6,7.4999772 C 6,6.5889519 6.67157,5.8504257 7.5,5.8504257 8.32843,5.8504257 9,6.5889519 9,7.4999772 9,8.4109914 8.32843,9.1495286 7.5,9.1495286 6.67157,9.1495286 6,8.4109914 6,7.4999772 Z M 7.5,6.9501267 c -0.27614,0 -0.5,0.246168 -0.5,0.5498505 0,0.3036714 0.22386,0.5498504 0.5,0.5498504 0.27614,0 0.5,-0.246179 0.5,-0.5498504 C 8,7.1962947 7.77614,6.9501267 7.5,6.9501267 Z"
     fill="black"
     id="path4320"
     style="fill:#ff0000;stroke-width:1.04867;fill-opacity:1" />
</svg>
