<?xml version="1.0" encoding="UTF-8" standalone="no"?>
<svg
   width="62.802345"
   height="76.87159"
   viewBox="0 0 62.802345 76.87159"
   fill="none"
   version="1.1"
   id="svg158"
   sodipodi:docname="rocket.svg"
   inkscape:export-filename="rocket.svg"
   inkscape:export-xdpi="300"
   inkscape:export-ydpi="300"
   inkscape:version="1.2.1 (9c6d41e410, 2022-07-14)"
   xmlns:inkscape="http://www.inkscape.org/namespaces/inkscape"
   xmlns:sodipodi="http://sodipodi.sourceforge.net/DTD/sodipodi-0.dtd"
   xmlns="http://www.w3.org/2000/svg"
   xmlns:svg="http://www.w3.org/2000/svg">
  <defs
     id="defs162" />
  <sodipodi:namedview
     id="namedview160"
     pagecolor="#505050"
     bordercolor="#ffffff"
     borderopacity="1"
     inkscape:showpageshadow="0"
     inkscape:pageopacity="0"
     inkscape:pagecheckerboard="1"
     inkscape:deskcolor="#505050"
     showgrid="false"
     inkscape:zoom="2.8951049"
     inkscape:cx="143"
     inkscape:cy="38.34058"
     inkscape:window-width="1366"
     inkscape:window-height="705"
     inkscape:window-x="-8"
     inkscape:window-y="-8"
     inkscape:window-maximized="1"
     inkscape:current-layer="svg158" />
  <path
     d="M 62.0281,1.4957478 51.8759,0.01574706 c -0.3004,-0.05920005 -0.6007,0.0591927 -0.7209,0.1775927 L 46.8298,5.7581478 c -0.3003,0.3552 -0.3604,0.8288 -0.2403,1.2432 0.1202,0.4144 -0.2403,0.76961 -0.6608,0.71041 l -3.5442,-0.76961 c -0.5407,-0.1184 -1.1414,0.05921 -1.5018,0.53281 L 26.8258,25.235028 c -0.2403,0.3552 -0.7209,0.4736 -1.1414,0.296 l -5.3464,-2.3681 c -0.4806,-0.2368 -1.0213,-0.1776 -1.4418,0.1184 l -2.7032,1.8352 c -0.4205,0.296 -1.0212,0.3553 -1.5018,0.1185 l -1.3216,-0.6513 c -0.841,-0.4144 -1.8622,0.0593 -2.1025,0.9473 l -0.9612,4.2031 c -0.2403,1.0064 0.1802,2.0129 1.0813,2.5457 l 2.0425,1.2432 6.5478,3.9664 3.1839,1.9536 c 0.901,0.5328 2.0424,0.4144 2.8234,-0.2368 l 5.3464,-4.6176 c 0.4205,-0.3552 1.0813,-0.4736 1.5619,-0.1776 l 1.6219,0.8288 c 0.5407,0.296 1.2015,0.1776 1.622,-0.2368 l 2.7032,-2.4864 c 0.4205,-0.4144 1.0813,-0.4736 1.5619,-0.2368 l 4.0248,1.8352 c 0.6008,0.296 1.3216,0.1184 1.7421,-0.4144 l 1.8623,-2.368 14.1169,-17.8193 c 0.6608,-0.8288 0.2403,-2.072 -0.841,-2.3088 l -3.1237,-0.7104 c -0.6608,-0.1184 -0.9612,-0.9471802 -0.4806,-1.4207802 l 4.8658,-5.97921 c 0.4806,-0.7104 0.1803,-1.47999 -0.5406,-1.59839 z"
     fill="#8257e6"
     id="path148" />
  <path
     d="m 15.4716,37.371028 c -0.3004,-0.1776 -0.6008,0.1184 -0.4806,0.4144 l 1.5018,3.9072 c 0.1201,0.296 0.1201,0.592 0.0601,0.888 l -1.3216,5.0912 c -0.0601,0.3552 0.06,0.7104 0.3003,0.888 l 3.7846,2.9008 c 0.3604,0.2368 0.841,0.2368 1.1414,-0.0592 l 3.9647,-3.4336 c 0.2403,-0.1776 0.5407,-0.296 0.781,-0.3552 l 4.5054,-0.4736 c 0.3003,-0.0592 0.4205,-0.4736 0.1201,-0.6512 z"
     fill="#8257e6"
     id="path150" />
  <path
     d="m 14.1497,50.513228 c -0.2403,-0.1776 -0.6007,-0.2368 -0.9011,-0.1184 l -3.1838,1.5392 c -0.18021,0.0592 -0.30036,0.2368 -0.42051,0.4144 l -6.78815,16.5168 c 0,0.0592 0,0.0592 0,0.1184 0.06008,0.0592 0.12014,0.1184 0.24029,0.1184 l 1.56188,-0.592 c 0.06007,0 0.12014,0 0.18021,0 0.06007,0.0592 0.12015,0.1776 0.06007,0.2368 l -4.86584609,7.8736 c -0.1201444,0.1776 0.1201501,0.3552 0.2402941,0.1776 L 17.8742,59.393228 c 0.1802,-0.1776 0.2403,-0.3552 0.3004,-0.592 l 0.3604,-4.4992 c 0,-0.296 -0.1202,-0.5328 -0.3004,-0.7104 z"
     fill="#8257e6"
     id="path152" />
</svg>
